<mxfile host="app.diagrams.net" modified="2022-05-31T11:01:47.666Z" agent="5.0 (Macintosh; Intel Mac OS X 10_15_7) AppleWebKit/537.36 (KHTML, like Gecko) Chrome/102.0.5005.61 Safari/537.36" etag="jxlZrhxJAvxDw5HZZmxY" version="18.1.2" type="github">
  <diagram id="uF8Rc3pjKOstHIJ072mO" name="Page-1">
    <mxGraphModel dx="757" dy="517" grid="1" gridSize="10" guides="1" tooltips="1" connect="1" arrows="1" fold="1" page="1" pageScale="1" pageWidth="827" pageHeight="1169" math="0" shadow="0">
      <root>
        <mxCell id="0" />
        <mxCell id="1" parent="0" />
        <mxCell id="J8WR6GNeyv9AGhhm-Svo-1" value="Людям" style="text;html=1;strokeColor=none;fillColor=none;align=center;verticalAlign=middle;whiteSpace=wrap;rounded=0;" vertex="1" parent="1">
          <mxGeometry x="60" y="200" width="60" height="40" as="geometry" />
        </mxCell>
        <mxCell id="J8WR6GNeyv9AGhhm-Svo-2" value="не&lt;span style=&quot;color: rgba(0, 0, 0, 0); font-family: monospace; font-size: 0px; text-align: start;&quot;&gt;%3CmxGraphModel%3E%3Croot%3E%3CmxCell%20id%3D%220%22%2F%3E%3CmxCell%20id%3D%221%22%20parent%3D%220%22%2F%3E%3CmxCell%20id%3D%222%22%20value%3D%22%D0%9B%D1%8E%D0%B4%D1%8F%D0%BC%22%20style%3D%22text%3Bhtml%3D1%3BstrokeColor%3Dnone%3BfillColor%3Dnone%3Balign%3Dcenter%3BverticalAlign%3Dmiddle%3BwhiteSpace%3Dwrap%3Brounded%3D0%3B%22%20vertex%3D%221%22%20parent%3D%221%22%3E%3CmxGeometry%20x%3D%2260%22%20y%3D%22230%22%20width%3D%2260%22%20height%3D%2230%22%20as%3D%22geometry%22%2F%3E%3C%2FmxCell%3E%3C%2Froot%3E%3C%2FmxGraphModel%3E&lt;/span&gt;" style="text;html=1;strokeColor=none;fillColor=none;align=center;verticalAlign=middle;whiteSpace=wrap;rounded=0;" vertex="1" parent="1">
          <mxGeometry x="60" y="240" width="60" height="40" as="geometry" />
        </mxCell>
        <mxCell id="J8WR6GNeyv9AGhhm-Svo-3" value="все равно," style="text;html=1;strokeColor=none;fillColor=none;align=center;verticalAlign=middle;whiteSpace=wrap;rounded=0;" vertex="1" parent="1">
          <mxGeometry x="50" y="290" width="80" height="40" as="geometry" />
        </mxCell>
        <mxCell id="J8WR6GNeyv9AGhhm-Svo-5" value="что" style="text;html=1;strokeColor=none;fillColor=none;align=center;verticalAlign=middle;whiteSpace=wrap;rounded=0;" vertex="1" parent="1">
          <mxGeometry x="60" y="330" width="60" height="40" as="geometry" />
        </mxCell>
        <mxCell id="J8WR6GNeyv9AGhhm-Svo-6" value="происходит" style="text;html=1;strokeColor=none;fillColor=none;align=center;verticalAlign=middle;whiteSpace=wrap;rounded=0;" vertex="1" parent="1">
          <mxGeometry x="50" y="370" width="80" height="40" as="geometry" />
        </mxCell>
        <mxCell id="J8WR6GNeyv9AGhhm-Svo-8" value="" style="ellipse;whiteSpace=wrap;html=1;aspect=fixed;" vertex="1" parent="1">
          <mxGeometry x="130" y="300" width="20" height="20" as="geometry" />
        </mxCell>
        <mxCell id="J8WR6GNeyv9AGhhm-Svo-9" value="" style="endArrow=classic;html=1;rounded=0;exitX=1;exitY=0.5;exitDx=0;exitDy=0;entryX=0;entryY=0.5;entryDx=0;entryDy=0;" edge="1" parent="1" source="J8WR6GNeyv9AGhhm-Svo-8" target="J8WR6GNeyv9AGhhm-Svo-11">
          <mxGeometry width="50" height="50" relative="1" as="geometry">
            <mxPoint x="180" y="315" as="sourcePoint" />
            <mxPoint x="170" y="305" as="targetPoint" />
          </mxGeometry>
        </mxCell>
        <mxCell id="J8WR6GNeyv9AGhhm-Svo-11" value="&lt;b&gt;3. все равно&lt;/b&gt;" style="rounded=1;whiteSpace=wrap;html=1;fillColor=#e1d5e7;strokeColor=#9673a6;align=center;" vertex="1" parent="1">
          <mxGeometry x="170" y="295" width="85" height="30" as="geometry" />
        </mxCell>
        <mxCell id="J8WR6GNeyv9AGhhm-Svo-13" value="" style="endArrow=none;html=1;rounded=0;exitX=1;exitY=0;exitDx=0;exitDy=0;entryX=0;entryY=0.5;entryDx=0;entryDy=0;" edge="1" parent="1" source="J8WR6GNeyv9AGhhm-Svo-8" target="J8WR6GNeyv9AGhhm-Svo-14">
          <mxGeometry width="50" height="50" relative="1" as="geometry">
            <mxPoint x="390" y="350" as="sourcePoint" />
            <mxPoint x="160" y="270" as="targetPoint" />
          </mxGeometry>
        </mxCell>
        <mxCell id="J8WR6GNeyv9AGhhm-Svo-14" value="&lt;b&gt;огранич.&lt;/b&gt;" style="rounded=1;whiteSpace=wrap;html=1;fillColor=#ffe6cc;strokeColor=#d79b00;" vertex="1" parent="1">
          <mxGeometry x="170" y="247.5" width="60" height="25" as="geometry" />
        </mxCell>
        <mxCell id="J8WR6GNeyv9AGhhm-Svo-16" value="&lt;b&gt;1-компл&lt;/b&gt;" style="rounded=1;whiteSpace=wrap;html=1;fillColor=#ffe6cc;strokeColor=#d79b00;" vertex="1" parent="1">
          <mxGeometry x="170" y="207.5" width="60" height="25" as="geometry" />
        </mxCell>
        <mxCell id="J8WR6GNeyv9AGhhm-Svo-17" value="" style="endArrow=none;html=1;rounded=0;exitX=1;exitY=0;exitDx=0;exitDy=0;entryX=0;entryY=0.5;entryDx=0;entryDy=0;" edge="1" parent="1" source="J8WR6GNeyv9AGhhm-Svo-8" target="J8WR6GNeyv9AGhhm-Svo-16">
          <mxGeometry width="50" height="50" relative="1" as="geometry">
            <mxPoint x="390" y="370" as="sourcePoint" />
            <mxPoint x="440" y="320" as="targetPoint" />
          </mxGeometry>
        </mxCell>
        <mxCell id="J8WR6GNeyv9AGhhm-Svo-18" value="" style="endArrow=classic;html=1;rounded=0;exitX=1;exitY=0.5;exitDx=0;exitDy=0;" edge="1" parent="1" source="J8WR6GNeyv9AGhhm-Svo-16">
          <mxGeometry width="50" height="50" relative="1" as="geometry">
            <mxPoint x="290" y="280" as="sourcePoint" />
            <mxPoint x="250" y="220" as="targetPoint" />
          </mxGeometry>
        </mxCell>
        <mxCell id="J8WR6GNeyv9AGhhm-Svo-19" value="&lt;b&gt;1. люди&lt;/b&gt;" style="rounded=1;whiteSpace=wrap;html=1;fillColor=#e1d5e7;strokeColor=#9673a6;align=center;" vertex="1" parent="1">
          <mxGeometry x="250" y="205" width="85" height="30" as="geometry" />
        </mxCell>
        <mxCell id="J8WR6GNeyv9AGhhm-Svo-20" value="" style="endArrow=classic;html=1;rounded=0;exitX=1;exitY=0.5;exitDx=0;exitDy=0;" edge="1" parent="1">
          <mxGeometry width="50" height="50" relative="1" as="geometry">
            <mxPoint x="230" y="259.5" as="sourcePoint" />
            <mxPoint x="250" y="259.5" as="targetPoint" />
          </mxGeometry>
        </mxCell>
        <mxCell id="J8WR6GNeyv9AGhhm-Svo-21" value="&lt;b&gt;2. не&lt;/b&gt;" style="rounded=1;whiteSpace=wrap;html=1;fillColor=#e1d5e7;strokeColor=#9673a6;align=center;" vertex="1" parent="1">
          <mxGeometry x="250" y="245" width="85" height="30" as="geometry" />
        </mxCell>
        <mxCell id="J8WR6GNeyv9AGhhm-Svo-22" value="" style="endArrow=none;html=1;rounded=0;exitX=1;exitY=1;exitDx=0;exitDy=0;" edge="1" parent="1" source="J8WR6GNeyv9AGhhm-Svo-8">
          <mxGeometry width="50" height="50" relative="1" as="geometry">
            <mxPoint x="390" y="370" as="sourcePoint" />
            <mxPoint x="170" y="390" as="targetPoint" />
          </mxGeometry>
        </mxCell>
        <mxCell id="J8WR6GNeyv9AGhhm-Svo-23" value="&lt;b&gt;предик.&lt;/b&gt;" style="rounded=1;whiteSpace=wrap;html=1;fillColor=#ffe6cc;strokeColor=#d79b00;" vertex="1" parent="1">
          <mxGeometry x="170" y="377.5" width="60" height="25" as="geometry" />
        </mxCell>
        <mxCell id="J8WR6GNeyv9AGhhm-Svo-24" value="" style="endArrow=classic;html=1;rounded=0;exitX=1;exitY=0.5;exitDx=0;exitDy=0;" edge="1" parent="1" source="J8WR6GNeyv9AGhhm-Svo-23">
          <mxGeometry width="50" height="50" relative="1" as="geometry">
            <mxPoint x="390" y="370" as="sourcePoint" />
            <mxPoint x="250" y="390" as="targetPoint" />
          </mxGeometry>
        </mxCell>
        <mxCell id="J8WR6GNeyv9AGhhm-Svo-25" value="&lt;b&gt;&lt;font style=&quot;font-size: 10px;&quot;&gt;5. происходить&lt;/font&gt;&lt;/b&gt;" style="rounded=1;whiteSpace=wrap;html=1;fillColor=#e1d5e7;strokeColor=#9673a6;align=center;" vertex="1" parent="1">
          <mxGeometry x="250" y="375" width="85" height="30" as="geometry" />
        </mxCell>
        <mxCell id="J8WR6GNeyv9AGhhm-Svo-27" value="&lt;b&gt;предик.&lt;/b&gt;" style="rounded=1;whiteSpace=wrap;html=1;fillColor=#ffe6cc;strokeColor=#d79b00;" vertex="1" parent="1">
          <mxGeometry x="275" y="337.5" width="60" height="25" as="geometry" />
        </mxCell>
        <mxCell id="J8WR6GNeyv9AGhhm-Svo-29" value="" style="endArrow=classic;html=1;rounded=0;exitX=1;exitY=0.5;exitDx=0;exitDy=0;" edge="1" parent="1">
          <mxGeometry width="50" height="50" relative="1" as="geometry">
            <mxPoint x="335" y="349.5" as="sourcePoint" />
            <mxPoint x="355" y="349.5" as="targetPoint" />
          </mxGeometry>
        </mxCell>
        <mxCell id="J8WR6GNeyv9AGhhm-Svo-30" value="&lt;b&gt;4. что&lt;/b&gt;" style="rounded=1;whiteSpace=wrap;html=1;fillColor=#e1d5e7;strokeColor=#9673a6;align=center;" vertex="1" parent="1">
          <mxGeometry x="356" y="335" width="85" height="30" as="geometry" />
        </mxCell>
        <mxCell id="J8WR6GNeyv9AGhhm-Svo-31" value="в&lt;span style=&quot;color: rgba(0, 0, 0, 0); font-family: monospace; font-size: 0px; text-align: start;&quot;&gt;%3CmxGraphModel%3E%3Croot%3E%3CmxCell%20id%3D%220%22%2F%3E%3CmxCell%20id%3D%221%22%20parent%3D%220%22%2F%3E%3CmxCell%20id%3D%222%22%20value%3D%22%D0%BF%D1%80%D0%BE%D0%B8%D1%81%D1%85%D0%BE%D0%B4%D0%B8%D1%82%22%20style%3D%22text%3Bhtml%3D1%3BstrokeColor%3Dnone%3BfillColor%3Dnone%3Balign%3Dcenter%3BverticalAlign%3Dmiddle%3BwhiteSpace%3Dwrap%3Brounded%3D0%3B%22%20vertex%3D%221%22%20parent%3D%221%22%3E%3CmxGeometry%20x%3D%2250%22%20y%3D%22370%22%20width%3D%2280%22%20height%3D%2240%22%20as%3D%22geometry%22%2F%3E%3C%2FmxCell%3E%3C%2Froot%3E%3C%2FmxGraphModel%3E&lt;/span&gt;" style="text;html=1;strokeColor=none;fillColor=none;align=center;verticalAlign=middle;whiteSpace=wrap;rounded=0;" vertex="1" parent="1">
          <mxGeometry x="50" y="410" width="80" height="40" as="geometry" />
        </mxCell>
        <mxCell id="J8WR6GNeyv9AGhhm-Svo-32" value="городе," style="text;html=1;strokeColor=none;fillColor=none;align=center;verticalAlign=middle;whiteSpace=wrap;rounded=0;" vertex="1" parent="1">
          <mxGeometry x="50" y="450" width="80" height="40" as="geometry" />
        </mxCell>
        <mxCell id="J8WR6GNeyv9AGhhm-Svo-33" value="поселке," style="text;html=1;strokeColor=none;fillColor=none;align=center;verticalAlign=middle;whiteSpace=wrap;rounded=0;" vertex="1" parent="1">
          <mxGeometry x="50" y="490" width="80" height="40" as="geometry" />
        </mxCell>
        <mxCell id="J8WR6GNeyv9AGhhm-Svo-34" value="стране." style="text;html=1;strokeColor=none;fillColor=none;align=center;verticalAlign=middle;whiteSpace=wrap;rounded=0;" vertex="1" parent="1">
          <mxGeometry x="50" y="530" width="80" height="40" as="geometry" />
        </mxCell>
        <mxCell id="J8WR6GNeyv9AGhhm-Svo-38" value="&lt;b&gt;1-компл.&lt;/b&gt;" style="rounded=1;whiteSpace=wrap;html=1;fillColor=#ffe6cc;strokeColor=#d79b00;" vertex="1" parent="1">
          <mxGeometry x="275" y="417.5" width="60" height="25" as="geometry" />
        </mxCell>
        <mxCell id="J8WR6GNeyv9AGhhm-Svo-39" value="" style="endArrow=classic;html=1;rounded=0;exitX=1;exitY=0.5;exitDx=0;exitDy=0;" edge="1" parent="1">
          <mxGeometry width="50" height="50" relative="1" as="geometry">
            <mxPoint x="335" y="429.6" as="sourcePoint" />
            <mxPoint x="355" y="429.6" as="targetPoint" />
          </mxGeometry>
        </mxCell>
        <mxCell id="J8WR6GNeyv9AGhhm-Svo-40" value="&lt;b&gt;6. в&lt;/b&gt;" style="rounded=1;whiteSpace=wrap;html=1;fillColor=#e1d5e7;strokeColor=#9673a6;align=center;" vertex="1" parent="1">
          <mxGeometry x="356" y="415" width="85" height="30" as="geometry" />
        </mxCell>
        <mxCell id="J8WR6GNeyv9AGhhm-Svo-41" value="" style="endArrow=none;html=1;rounded=0;fontSize=10;exitX=0.073;exitY=0.013;exitDx=0;exitDy=0;exitPerimeter=0;entryX=0;entryY=0.5;entryDx=0;entryDy=0;" edge="1" parent="1" source="J8WR6GNeyv9AGhhm-Svo-25" target="J8WR6GNeyv9AGhhm-Svo-27">
          <mxGeometry width="50" height="50" relative="1" as="geometry">
            <mxPoint x="350" y="370" as="sourcePoint" />
            <mxPoint x="400" y="320" as="targetPoint" />
          </mxGeometry>
        </mxCell>
        <mxCell id="J8WR6GNeyv9AGhhm-Svo-42" value="" style="endArrow=none;html=1;rounded=0;fontSize=10;exitX=0.073;exitY=1.027;exitDx=0;exitDy=0;exitPerimeter=0;entryX=0;entryY=0.5;entryDx=0;entryDy=0;" edge="1" parent="1" source="J8WR6GNeyv9AGhhm-Svo-25" target="J8WR6GNeyv9AGhhm-Svo-38">
          <mxGeometry width="50" height="50" relative="1" as="geometry">
            <mxPoint x="266.2049999999999" y="385.39" as="sourcePoint" />
            <mxPoint x="285" y="360" as="targetPoint" />
          </mxGeometry>
        </mxCell>
        <mxCell id="J8WR6GNeyv9AGhhm-Svo-43" value="&lt;b&gt;предл.&lt;/b&gt;" style="rounded=1;whiteSpace=wrap;html=1;fillColor=#ffe6cc;strokeColor=#d79b00;" vertex="1" parent="1">
          <mxGeometry x="381" y="457.5" width="60" height="25" as="geometry" />
        </mxCell>
        <mxCell id="J8WR6GNeyv9AGhhm-Svo-44" value="" style="endArrow=none;html=1;rounded=0;fontSize=10;exitX=0.087;exitY=1;exitDx=0;exitDy=0;exitPerimeter=0;entryX=0;entryY=0.5;entryDx=0;entryDy=0;" edge="1" parent="1" source="J8WR6GNeyv9AGhhm-Svo-40" target="J8WR6GNeyv9AGhhm-Svo-43">
          <mxGeometry width="50" height="50" relative="1" as="geometry">
            <mxPoint x="335.00499999999994" y="465.81000000000006" as="sourcePoint" />
            <mxPoint x="353.8" y="490" as="targetPoint" />
          </mxGeometry>
        </mxCell>
        <mxCell id="J8WR6GNeyv9AGhhm-Svo-45" value="" style="endArrow=classic;html=1;rounded=0;exitX=1;exitY=0.5;exitDx=0;exitDy=0;" edge="1" parent="1">
          <mxGeometry width="50" height="50" relative="1" as="geometry">
            <mxPoint x="441" y="469.6" as="sourcePoint" />
            <mxPoint x="461" y="469.6" as="targetPoint" />
          </mxGeometry>
        </mxCell>
        <mxCell id="J8WR6GNeyv9AGhhm-Svo-46" value="&lt;b&gt;7. город&lt;/b&gt;" style="rounded=1;whiteSpace=wrap;html=1;fillColor=#e1d5e7;strokeColor=#9673a6;align=center;" vertex="1" parent="1">
          <mxGeometry x="460" y="455" width="85" height="30" as="geometry" />
        </mxCell>
        <mxCell id="J8WR6GNeyv9AGhhm-Svo-47" value="" style="endArrow=none;html=1;rounded=0;fontSize=10;exitX=0.087;exitY=1;exitDx=0;exitDy=0;exitPerimeter=0;entryX=0;entryY=0.5;entryDx=0;entryDy=0;" edge="1" parent="1" target="J8WR6GNeyv9AGhhm-Svo-48">
          <mxGeometry width="50" height="50" relative="1" as="geometry">
            <mxPoint x="469.995" y="485" as="sourcePoint" />
            <mxPoint x="487.6" y="510" as="targetPoint" />
          </mxGeometry>
        </mxCell>
        <mxCell id="J8WR6GNeyv9AGhhm-Svo-48" value="&lt;b&gt;сочин.&lt;/b&gt;" style="rounded=1;whiteSpace=wrap;html=1;fillColor=#ffe6cc;strokeColor=#d79b00;" vertex="1" parent="1">
          <mxGeometry x="485" y="497.5" width="60" height="25" as="geometry" />
        </mxCell>
        <mxCell id="J8WR6GNeyv9AGhhm-Svo-49" value="" style="endArrow=classic;html=1;rounded=0;exitX=1;exitY=0.5;exitDx=0;exitDy=0;" edge="1" parent="1">
          <mxGeometry width="50" height="50" relative="1" as="geometry">
            <mxPoint x="545" y="509.6" as="sourcePoint" />
            <mxPoint x="565" y="509.6" as="targetPoint" />
          </mxGeometry>
        </mxCell>
        <mxCell id="J8WR6GNeyv9AGhhm-Svo-50" value="&lt;b&gt;8. поселок&lt;/b&gt;" style="rounded=1;whiteSpace=wrap;html=1;fillColor=#e1d5e7;strokeColor=#9673a6;align=center;" vertex="1" parent="1">
          <mxGeometry x="565" y="495" width="85" height="30" as="geometry" />
        </mxCell>
        <mxCell id="J8WR6GNeyv9AGhhm-Svo-51" value="" style="endArrow=none;html=1;rounded=0;fontSize=10;exitX=0.087;exitY=1;exitDx=0;exitDy=0;exitPerimeter=0;entryX=0;entryY=0.5;entryDx=0;entryDy=0;" edge="1" parent="1" target="J8WR6GNeyv9AGhhm-Svo-52">
          <mxGeometry width="50" height="50" relative="1" as="geometry">
            <mxPoint x="570.0049999999999" y="525" as="sourcePoint" />
            <mxPoint x="585.01" y="550" as="targetPoint" />
          </mxGeometry>
        </mxCell>
        <mxCell id="J8WR6GNeyv9AGhhm-Svo-52" value="&lt;b&gt;сочин.&lt;/b&gt;" style="rounded=1;whiteSpace=wrap;html=1;fillColor=#ffe6cc;strokeColor=#d79b00;" vertex="1" parent="1">
          <mxGeometry x="590" y="537.5" width="60" height="25" as="geometry" />
        </mxCell>
        <mxCell id="J8WR6GNeyv9AGhhm-Svo-53" value="" style="endArrow=classic;html=1;rounded=0;exitX=1;exitY=0.5;exitDx=0;exitDy=0;" edge="1" parent="1">
          <mxGeometry width="50" height="50" relative="1" as="geometry">
            <mxPoint x="650" y="549.5999999999999" as="sourcePoint" />
            <mxPoint x="670" y="549.5999999999999" as="targetPoint" />
          </mxGeometry>
        </mxCell>
        <mxCell id="J8WR6GNeyv9AGhhm-Svo-54" value="&lt;b&gt;9. страна&lt;/b&gt;" style="rounded=1;whiteSpace=wrap;html=1;fillColor=#e1d5e7;strokeColor=#9673a6;align=center;" vertex="1" parent="1">
          <mxGeometry x="670" y="535" width="85" height="30" as="geometry" />
        </mxCell>
        <mxCell id="J8WR6GNeyv9AGhhm-Svo-55" value="" style="endArrow=none;dashed=1;html=1;dashPattern=1 3;strokeWidth=2;rounded=0;fontSize=10;exitX=1;exitY=0.5;exitDx=0;exitDy=0;entryX=0;entryY=0.5;entryDx=0;entryDy=0;" edge="1" parent="1" source="J8WR6GNeyv9AGhhm-Svo-1" target="J8WR6GNeyv9AGhhm-Svo-16">
          <mxGeometry width="50" height="50" relative="1" as="geometry">
            <mxPoint x="350" y="380" as="sourcePoint" />
            <mxPoint x="400" y="330" as="targetPoint" />
          </mxGeometry>
        </mxCell>
        <mxCell id="J8WR6GNeyv9AGhhm-Svo-56" value="" style="endArrow=none;dashed=1;html=1;dashPattern=1 3;strokeWidth=2;rounded=0;fontSize=10;exitX=1;exitY=0.5;exitDx=0;exitDy=0;entryX=0;entryY=0.5;entryDx=0;entryDy=0;" edge="1" parent="1">
          <mxGeometry width="50" height="50" relative="1" as="geometry">
            <mxPoint x="120" y="259.6" as="sourcePoint" />
            <mxPoint x="170" y="259.6" as="targetPoint" />
          </mxGeometry>
        </mxCell>
        <mxCell id="J8WR6GNeyv9AGhhm-Svo-57" value="" style="endArrow=none;dashed=1;html=1;dashPattern=1 3;strokeWidth=2;rounded=0;fontSize=10;exitX=1;exitY=0.5;exitDx=0;exitDy=0;entryX=0;entryY=0.5;entryDx=0;entryDy=0;" edge="1" parent="1" target="J8WR6GNeyv9AGhhm-Svo-27">
          <mxGeometry width="50" height="50" relative="1" as="geometry">
            <mxPoint x="120" y="349.6" as="sourcePoint" />
            <mxPoint x="170" y="349.6" as="targetPoint" />
          </mxGeometry>
        </mxCell>
        <mxCell id="J8WR6GNeyv9AGhhm-Svo-58" value="" style="endArrow=none;dashed=1;html=1;dashPattern=1 3;strokeWidth=2;rounded=0;fontSize=10;exitX=1;exitY=0.5;exitDx=0;exitDy=0;" edge="1" parent="1">
          <mxGeometry width="50" height="50" relative="1" as="geometry">
            <mxPoint x="130" y="389.6" as="sourcePoint" />
            <mxPoint x="170" y="390" as="targetPoint" />
          </mxGeometry>
        </mxCell>
        <mxCell id="J8WR6GNeyv9AGhhm-Svo-59" value="" style="endArrow=none;dashed=1;html=1;dashPattern=1 3;strokeWidth=2;rounded=0;fontSize=10;exitX=1;exitY=0.5;exitDx=0;exitDy=0;entryX=0;entryY=0.5;entryDx=0;entryDy=0;" edge="1" parent="1" target="J8WR6GNeyv9AGhhm-Svo-38">
          <mxGeometry width="50" height="50" relative="1" as="geometry">
            <mxPoint x="120" y="429.6" as="sourcePoint" />
            <mxPoint x="160" y="430" as="targetPoint" />
          </mxGeometry>
        </mxCell>
        <mxCell id="J8WR6GNeyv9AGhhm-Svo-60" value="" style="endArrow=none;dashed=1;html=1;dashPattern=1 3;strokeWidth=2;rounded=0;fontSize=10;exitX=1;exitY=0.5;exitDx=0;exitDy=0;entryX=0;entryY=0.5;entryDx=0;entryDy=0;" edge="1" parent="1" target="J8WR6GNeyv9AGhhm-Svo-43">
          <mxGeometry width="50" height="50" relative="1" as="geometry">
            <mxPoint x="120" y="469.6" as="sourcePoint" />
            <mxPoint x="275" y="470" as="targetPoint" />
          </mxGeometry>
        </mxCell>
        <mxCell id="J8WR6GNeyv9AGhhm-Svo-61" value="" style="endArrow=none;dashed=1;html=1;dashPattern=1 3;strokeWidth=2;rounded=0;fontSize=10;exitX=1;exitY=0.5;exitDx=0;exitDy=0;entryX=0;entryY=0.5;entryDx=0;entryDy=0;" edge="1" parent="1" target="J8WR6GNeyv9AGhhm-Svo-48">
          <mxGeometry width="50" height="50" relative="1" as="geometry">
            <mxPoint x="120" y="509.6" as="sourcePoint" />
            <mxPoint x="381" y="510" as="targetPoint" />
          </mxGeometry>
        </mxCell>
        <mxCell id="J8WR6GNeyv9AGhhm-Svo-62" value="" style="endArrow=none;dashed=1;html=1;dashPattern=1 3;strokeWidth=2;rounded=0;fontSize=10;exitX=1;exitY=0.5;exitDx=0;exitDy=0;entryX=0;entryY=0.5;entryDx=0;entryDy=0;" edge="1" parent="1" target="J8WR6GNeyv9AGhhm-Svo-52">
          <mxGeometry width="50" height="50" relative="1" as="geometry">
            <mxPoint x="120" y="549.5999999999999" as="sourcePoint" />
            <mxPoint x="485" y="550" as="targetPoint" />
          </mxGeometry>
        </mxCell>
      </root>
    </mxGraphModel>
  </diagram>
</mxfile>
